<svg width="10" height="10" viewBox="0 0 10 10" fill="none" xmlns="http://www.w3.org/2000/svg">
<path d="M8.79788 0H1.20211C0.883291 -2.50558e-06 0.577535 0.126642 0.352097 0.352077C0.126658 0.577511 4.00893e-06 0.883269 0 1.20208V8.79789C2.00446e-06 9.11671 0.126658 9.42247 0.352097 9.64791C0.577535 9.87335 0.883288 10 1.20211 10H8.79788C9.1167 10 9.42246 9.87335 9.6479 9.64791C9.87334 9.42247 10 9.11671 10 8.79789V1.20209C10 0.883271 9.87334 0.577515 9.6479 0.35208C9.42246 0.126645 9.1167 -2.50558e-06 8.79788 0ZM5 7.66667C4.47258 7.66667 3.95701 7.51027 3.51848 7.21726C3.07994 6.92424 2.73816 6.50776 2.53633 6.02049C2.33449 5.53322 2.28168 4.99704 2.38457 4.47976C2.48747 3.96248 2.74144 3.48732 3.11438 3.11438C3.48732 2.74144 3.96248 2.48746 4.47976 2.38457C4.99704 2.28168 5.53322 2.33449 6.02049 2.53632C6.50776 2.73815 6.92423 3.07995 7.21725 3.51848C7.51026 3.95701 7.66667 4.47258 7.66667 5C7.66667 5.70725 7.38571 6.38552 6.88561 6.88562C6.38551 7.38571 5.70724 7.66667 5 7.66667ZM8 2.33333C7.86815 2.33333 7.73925 2.29423 7.62961 2.22098C7.51998 2.14772 7.43453 2.0436 7.38408 1.92179C7.33362 1.79997 7.32041 1.66593 7.34613 1.53661C7.37186 1.40729 7.43535 1.2885 7.52859 1.19526C7.62182 1.10203 7.74062 1.03853 7.86994 1.01281C7.99926 0.987085 8.1333 1.00029 8.25512 1.05075C8.37694 1.10121 8.48105 1.18665 8.55431 1.29629C8.62756 1.40592 8.66667 1.53481 8.66667 1.66667C8.66666 1.84348 8.59642 2.01305 8.4714 2.13807C8.34638 2.26309 8.17681 2.33333 8 2.33333Z" fill="#1E3F7F"/>
</svg>
