<svg width="10" height="10" viewBox="0 0 10 10" fill="none" xmlns="http://www.w3.org/2000/svg">
<path d="M8.79789 0H1.20211C0.883292 -2.50558e-06 0.577536 0.12664 0.352097 0.352074C0.126658 0.577509 4.00894e-06 0.883269 0 1.20208V8.79789C2.00446e-06 9.11671 0.126652 9.42247 0.352091 9.64791C0.57753 9.87335 0.883289 10 1.20211 10H8.79789C9.11671 10 9.42247 9.87335 9.64791 9.64791C9.87335 9.42247 10 9.11671 10 8.79789V1.20208C10 0.883268 9.87335 0.577509 9.64791 0.352074C9.42247 0.126639 9.11671 -2.50558e-06 8.79789 0ZM7.37165 2.56443H6.50057C5.90583 2.56443 5.79006 2.84603 5.79006 3.2618V4.14339H7.20843L7.02424 5.52759H5.78741V9.13706C5.25857 9.2363 4.71576 9.23501 4.1874 9.13325V5.52759H3.05316V4.14339H4.20847V3.11973C4.20847 1.89599 5.05847 1.22761 6.15318 1.22761C6.6795 1.22761 7.24269 1.2671 7.37164 1.28549L7.37165 2.56443Z" fill="#1E3F7F"/>
</svg>
