<svg width="10" height="10" viewBox="0 0 10 10" fill="none" xmlns="http://www.w3.org/2000/svg">
<path d="M9.19918 0.000724892L0.854303 0.00148069C0.747016 -0.00372015 0.639754 0.0123205 0.538684 0.0486834C0.437614 0.0850463 0.344729 0.141018 0.26535 0.213378C0.18597 0.285737 0.121669 0.373062 0.0761323 0.47034C0.0305957 0.567619 0.00472213 0.672932 0 0.780236L0.000755826 9.14328C0.00655078 9.36828 0.0983556 9.58249 0.257297 9.74186C0.416238 9.90122 0.630222 9.9936 0.85521 10L9.19763 9.99924C9.41716 9.99062 9.62446 9.89585 9.77459 9.73547C9.92472 9.57508 10.0056 9.36199 9.9997 9.14238L9.99896 0.779336C10.0007 0.674806 9.98105 0.571021 9.9412 0.474367C9.90135 0.377713 9.84215 0.290229 9.76723 0.217301C9.69232 0.144372 9.60329 0.0875429 9.5056 0.0502981C9.4079 0.0130532 9.30363 -0.00382127 9.19918 0.000724892ZM3.10012 8.33554L1.6677 8.33567L1.6673 3.88209L3.09974 3.88196L3.10012 8.33554ZM2.43299 3.20488H2.42272C2.2166 3.20352 2.01943 3.12052 1.87439 2.97405C1.72936 2.82758 1.6483 2.6296 1.64898 2.42348C1.64966 2.21736 1.73203 2.01992 1.87802 1.87441C2.02402 1.7289 2.22174 1.6472 2.42786 1.6472C2.63399 1.6472 2.83171 1.7289 2.97771 1.87441C3.1237 2.01992 3.20606 2.21736 3.20674 2.42348C3.20741 2.6296 3.12637 2.82758 2.98133 2.97405C2.8363 3.12052 2.63911 3.20352 2.43299 3.20488ZM8.33529 8.33506L6.90286 8.33519L6.90264 5.90006C6.90259 5.31667 6.69409 4.91808 6.17584 4.91813C6.01374 4.91943 5.85605 4.97099 5.7245 5.0657C5.59295 5.16041 5.49402 5.29361 5.44137 5.44692C5.40324 5.56009 5.38645 5.67935 5.39186 5.79866L5.39208 8.33533L3.95965 8.33545L3.95925 3.88189L5.39169 3.88176L5.39175 4.50153C5.52216 4.27593 5.71094 4.08963 5.93825 3.96221C6.16556 3.83479 6.423 3.77095 6.68351 3.77742C7.62381 3.77733 8.33517 4.39704 8.33529 5.73322V8.33506Z" fill="#1E3F7F"/>
</svg>
