<svg width="75" height="60" viewBox="0 0 75 60" fill="none" xmlns="http://www.w3.org/2000/svg">
<g clip-path="url(#clip0_14_85)">
<path d="M15.1274 36.8362C14.9978 36.8428 14.8695 36.8051 14.7599 36.7282C14.6503 36.6513 14.5647 36.539 14.5146 36.4064C14.4646 36.2738 14.4525 36.1273 14.4801 35.9869C14.5077 35.8464 14.5736 35.7188 14.6689 35.6212C14.6848 35.551 14.6963 35.5005 14.7122 35.4303C14.7065 35.415 14.7008 35.3997 14.695 35.3844C14.1125 33.8456 12.1384 33.8562 11.5609 35.3973C11.0483 36.7651 10.3957 38.1353 10.235 39.5816C10.1642 40.2208 10.1941 40.8689 10.3232 41.4968C9.11926 38.5871 8.49408 35.4246 8.49005 32.2237C8.4898 31.4204 8.53008 30.6178 8.6107 29.8196C8.67733 29.1652 8.76978 28.5154 8.88803 27.8704C9.53332 24.3702 10.9188 21.0896 12.9307 18.2979C13.9044 17.7093 14.6919 16.8041 15.187 15.7043C15.3664 15.309 15.4931 14.887 15.5633 14.4514C15.4535 14.4674 15.3419 14.4773 15.232 14.4853C15.1978 14.4873 15.1618 14.4893 15.1276 14.4913L15.1147 14.4919C14.9939 14.4979 14.8742 14.4651 14.7699 14.3975C14.6656 14.3299 14.5812 14.2303 14.5268 14.1107C14.4724 13.9912 14.4504 13.8568 14.4633 13.7237C14.4763 13.5905 14.5237 13.4644 14.5998 13.3605C14.6473 13.2958 14.6947 13.2312 14.7422 13.1665C14.8142 13.0668 14.8881 12.969 14.9601 12.8693C14.9684 12.8598 14.9762 12.8498 14.9835 12.8393C15.0664 12.7256 15.1492 12.6139 15.232 12.5002C15.0808 12.2402 14.8774 12.0224 14.6378 11.8638C13.8076 11.3251 12.6624 11.6982 12.0627 12.5301C11.4613 13.3621 11.3478 14.5292 11.5567 15.5686C11.735 16.4584 12.1239 17.2744 12.5615 18.0505C12.5165 18.1144 12.4697 18.1762 12.4247 18.2401C11.6017 19.4125 10.8845 20.6714 10.2832 21.9988C10.4533 20.5266 10.2021 18.7529 9.77398 17.6096C9.28658 16.3069 8.37303 15.2098 7.56854 14.0836C6.60221 12.7309 4.62067 13.3213 4.45043 15.036C4.44878 15.0526 4.44717 15.0692 4.4456 15.0858C4.5651 15.1605 4.68207 15.2398 4.79651 15.3236C4.94029 15.4301 5.05169 15.5821 5.11613 15.7599C5.18057 15.9377 5.19503 16.1329 5.15763 16.3199C5.12023 16.507 5.0327 16.6771 4.90652 16.8081C4.78034 16.9391 4.62139 17.0248 4.4505 17.054L4.433 17.057C4.47557 17.5341 4.55082 18.007 4.65809 18.4715C4.96893 19.7683 5.51821 20.9799 6.2715 22.0304C7.02479 23.081 7.96585 23.9478 9.03567 24.5765C9.1059 24.6164 9.17434 24.6563 9.24457 24.6942C8.64046 26.5909 8.26153 28.5667 8.11731 30.5717C8.03565 31.7546 8.04047 32.9429 8.13171 34.125C8.12991 34.111 8.1281 34.097 8.12631 34.0831C7.8958 32.7687 7.26292 31.5826 6.33457 30.7253C4.95573 29.4704 3.00769 29.0083 1.52017 27.9996C0.804115 27.514 -0.113452 28.1415 0.0115186 29.0613C0.0135149 29.076 0.0155422 29.0906 0.0176018 29.1053C0.239347 29.2054 0.455251 29.3207 0.664059 29.4505C0.783553 29.5252 0.900523 29.6044 1.01497 29.6883C1.15874 29.7947 1.27014 29.9468 1.33458 30.1246C1.39902 30.3023 1.41348 30.4975 1.37608 30.6846C1.33868 30.8716 1.25116 31.0418 1.12498 31.1727C0.9988 31.3037 0.83985 31.3894 0.668958 31.4186L0.651444 31.4216C0.638843 31.4236 0.628033 31.4256 0.615448 31.4276C0.994329 32.4299 1.5261 33.3525 2.18748 34.1549C3.0045 35.1262 3.99198 35.9024 5.08937 36.4359C6.18676 36.9693 7.37093 37.2488 8.56929 37.2573H8.57109C8.89639 38.8234 9.36772 40.3479 9.97747 41.8061H15.0015C15.0195 41.7442 15.0357 41.6804 15.0519 41.6185C14.5869 41.6509 14.12 41.6201 13.6618 41.5268C14.0345 41.02 14.4073 40.5092 14.78 40.0025C14.7883 39.993 14.7962 39.983 14.8034 39.9726C14.9925 39.7132 15.1834 39.4559 15.3725 39.1965L15.3726 39.1962C15.3826 38.4012 15.3003 37.608 15.1276 36.8363L15.1274 36.8362Z" fill="#1E3F7F"/>
<path d="M74.8812 42.0177L0.144025 42.0517C0.112504 42.0517 0.0822752 42.0378 0.0599868 42.0131C0.0376983 41.9884 0.025177 41.9549 0.025177 41.92C0.025177 41.8851 0.0376983 41.8516 0.0599868 41.8269C0.0822752 41.8022 0.112504 41.7883 0.144025 41.7883L74.8812 41.7543C74.9127 41.7543 74.9429 41.7682 74.9652 41.7929C74.9875 41.8176 75 41.8511 75 41.886C75 41.9209 74.9875 41.9544 74.9652 41.9791C74.9429 42.0038 74.9127 42.0177 74.8812 42.0177Z" fill="#CACACA"/>
<path d="M63.3641 41.9343C59.9611 42.0938 58.0369 41.9777 55.5562 39.592C53.8672 39.5422 52.5247 38.189 52.5634 36.5754C52.6021 34.9618 54.0077 33.6896 55.6967 33.7393L61.8291 34.0614C63.5181 34.1112 66.659 33.9961 66.6203 35.6097C66.6013 36.4019 66.6009 37.4293 66.5346 38.5056C66.48 39.4093 66.1263 40.259 65.5412 40.8917C64.9562 41.5244 64.1809 41.8957 63.3641 41.9343Z" fill="#F9A826"/>
<path d="M52.4337 57.0389L50.6766 57.3569L48.7332 49.9997L51.3264 49.5302L52.4337 57.0389Z" fill="#FFB6B6"/>
<path d="M51.7355 41.6976C55.0114 42.59 57.4304 41.585 59.4227 41.7153C60.5553 39.598 64.1705 36.9086 62.1979 35.7766C61.0995 35.1461 49.9326 33.6929 48.4666 35.3701C44.697 39.6832 49.3773 53.3039 49.3773 53.3039L51.9804 53.2667L52.8121 51.9515L52.1422 50.5181L52.7759 49.3462L52.0507 48.1389L51.7355 41.6976Z" fill="#F9A826"/>
<path d="M53.6422 58.5088L52.4911 58.8503L51.9946 57.7072L51.7594 59.0674L48.7063 59.9731C48.56 60.0165 48.4049 60.007 48.2638 59.9459C48.1227 59.8848 48.003 59.7753 47.922 59.6334C47.841 59.4915 47.8031 59.3247 47.8138 59.1573C47.8245 58.9898 47.8832 58.8306 47.9814 58.7027L49.9686 56.1139L49.6744 54.8966L52.2798 54.3054L53.6422 58.5088Z" fill="#1E3F7F"/>
<path d="M66.8326 54.6409L65.5503 56.0093L60.1763 51.1807L62.0689 49.1611L66.8326 54.6409Z" fill="#FFB6B6"/>
<path d="M56.4955 39.428C59.4985 40.7095 62.1248 39.2843 64.7196 37.6324C64.5649 35.1772 64.4785 31.637 62.2749 31.9481C61.0477 32.1213 50.9049 33.9783 50.5595 36.2815C49.6714 42.204 62.4017 53.4934 62.4017 53.4934L64.5242 51.8231L64.5335 50.2173L63.2469 49.46L63.1669 48.0968L61.9508 47.5604L56.4955 39.428Z" fill="#F9A826"/>
<path d="M68.5811 55.0891L67.8093 56.0951L66.8143 55.4673L67.3187 56.7345L65.2718 59.4026C65.1737 59.5305 65.0412 59.6203 64.8938 59.6589C64.7463 59.6975 64.5916 59.6829 64.4522 59.6172C64.3128 59.5514 64.196 59.4381 64.1189 59.2936C64.0418 59.1491 64.0084 58.9811 64.0235 58.8141L64.33 55.4327L63.4633 54.6165L65.3034 52.4891L68.5811 55.0891Z" fill="#1E3F7F"/>
<path d="M54.9122 34.5432C54.7007 34.5432 54.5805 34.4972 54.534 34.3987C54.4657 34.254 54.0298 34.0651 54.167 33.8462C54.2626 33.6937 54.4936 33.4894 54.4047 33.3718C54.0622 32.9188 53.2072 19.9238 53.0058 18.151C52.9563 17.6023 53.0234 17.0483 53.2018 16.5335C53.7662 14.7619 54.5365 14.2174 56.0713 13.1328C56.1958 13.0448 56.3256 12.9528 56.4604 12.8569C56.6349 12.7327 56.6252 13.0228 56.6149 12.5867C56.6035 12.1019 56.5917 11.6006 56.806 11.2873L56.82 11.2669L56.8424 11.2611C57.3609 11.1283 59.1045 10.8818 60.1371 11.2629L60.1514 11.2683L60.162 11.28C60.4073 11.5518 60.4297 12.0782 60.4513 12.5872C60.469 13.0051 60.4857 12.6978 60.6245 12.8692C61.155 13.5243 61.9542 13.9028 62.6209 14.1176C63.0388 14.2506 63.4047 14.5342 63.6606 14.9236C63.9166 15.313 64.048 15.7859 64.034 16.2674C63.9617 18.6927 64.0185 22.5276 63.6449 25.2301C63.0231 29.7279 68.7002 36.2234 65.4485 36.3569C65.4568 36.371 65.4614 36.3874 65.4619 36.4042C65.4623 36.4211 65.4586 36.4377 65.4511 36.4524C65.2191 36.9329 55.7095 34.5432 54.9122 34.5432Z" fill="#E6E6E6"/>
<path d="M58.2031 10.9001C60.3438 10.9001 62.0792 8.9774 62.0792 6.60567C62.0792 4.23395 60.3438 2.31128 58.2031 2.31128C56.0625 2.31128 54.3271 4.23395 54.3271 6.60567C54.3271 8.9774 56.0625 10.9001 58.2031 10.9001Z" fill="#2F2E41"/>
<path d="M58.5152 11.2545C60.053 11.2062 61.2643 9.78594 61.2207 8.08217C61.1771 6.37841 59.8952 5.03637 58.3574 5.08465C56.8196 5.13292 55.6083 6.55323 55.6519 8.25699C55.6954 9.96075 56.9774 11.3028 58.5152 11.2545Z" fill="#FFB6B6"/>
<path d="M58.4632 3.46298L57.334 3.49843C56.6224 3.52141 55.9481 3.85624 55.4591 4.42944C54.9701 5.00264 54.7063 5.76738 54.7256 6.55582L54.7263 6.58353L54.7469 6.59782C55.3606 7.04773 56.0851 7.27609 56.8207 7.25153L56.8842 7.24954L57.5081 7.21822C57.613 6.91881 57.6481 6.59492 57.6101 6.27651C57.7043 6.57834 57.7779 6.88762 57.8301 7.20171L60.6296 7.0605C60.7925 7.05156 60.9458 6.97246 61.0568 6.84006C61.1678 6.70767 61.2277 6.53246 61.2237 6.35183C61.2027 5.56343 60.9002 4.81647 60.3827 4.27487C59.8652 3.73327 59.1748 3.44128 58.4632 3.46298Z" fill="#2F2E41"/>
<path d="M56.213 2.68859C55.9582 3.03681 55.549 3.1819 55.1812 3.37049C54.5325 3.71041 53.9683 4.22053 53.5378 4.85663C53.1072 5.49272 52.8231 6.23558 52.7102 7.0208C52.6236 7.66021 52.6539 8.31835 52.5072 8.94366C52.3615 9.56893 51.9769 10.19 51.4055 10.3156C51.0188 10.4014 50.625 10.2473 50.2553 10.0947C50.052 10.0115 49.8487 9.92795 49.6453 9.84403C49.8401 9.25455 50.0346 8.66507 50.2287 8.0756C49.9068 8.63626 49.529 9.15504 49.1025 9.62218C48.3739 9.32297 47.6446 9.02378 46.9147 8.72461C48.6904 8.67633 48.3386 6.77623 48.6868 4.84775C48.8783 3.78805 50.7192 3.01677 51.0581 2.00363C51.2412 1.45413 51.5626 0.974247 51.9841 0.62077C52.4057 0.267293 52.9098 0.0550222 53.4369 0.00907963C53.9639 -0.0368629 54.4918 0.0854475 54.9581 0.361533C55.4244 0.637619 55.8095 1.05592 56.0679 1.56694C56.4365 1.71641 56.4632 2.3448 56.213 2.68859Z" fill="#2F2E41"/>
<path d="M56.3906 3.96576C57.1877 3.96576 57.8339 3.24983 57.8339 2.36667C57.8339 1.48352 57.1877 0.767578 56.3906 0.767578C55.5935 0.767578 54.9473 1.48352 54.9473 2.36667C54.9473 3.24983 55.5935 3.96576 56.3906 3.96576Z" fill="#2F2E41"/>
<path d="M61.5175 27.039H54.8542C54.626 27.0387 54.4073 26.9382 54.2459 26.7594C54.0846 26.5807 53.9939 26.3383 53.9936 26.0855V18.1501C53.9938 17.8973 54.0846 17.6549 54.2459 17.4762C54.4073 17.2974 54.626 17.1969 54.8542 17.1966H61.5175C61.7457 17.1969 61.9644 17.2974 62.1258 17.4762C62.2871 17.6549 62.3779 17.8973 62.3781 18.1501V26.0855C62.3779 26.3383 62.2871 26.5807 62.1258 26.7594C61.9644 26.9382 61.7457 27.0387 61.5175 27.039Z" fill="#F9A826"/>
<path d="M55.0417 18.9107C55.3173 18.9107 55.5408 18.6631 55.5408 18.3578C55.5408 18.0524 55.3173 17.8048 55.0417 17.8048C54.766 17.8048 54.5426 18.0524 54.5426 18.3578C54.5426 18.6631 54.766 18.9107 55.0417 18.9107Z" fill="#E6E6E6"/>
<path d="M55.0417 18.6895C55.207 18.6895 55.3411 18.541 55.3411 18.3578C55.3411 18.1745 55.207 18.026 55.0417 18.026C54.8763 18.026 54.7422 18.1745 54.7422 18.3578C54.7422 18.541 54.8763 18.6895 55.0417 18.6895Z" fill="#3F3D56"/>
<path d="M57.1346 26.6537L52.5577 25.3678L51.8463 27.9769C51.8463 27.9769 56.7703 28.3808 56.9543 28.3827C57.092 28.5985 57.2855 28.763 57.5093 28.8543C57.7331 28.9456 57.9766 28.9594 58.2077 28.894C58.4388 28.8286 58.6465 28.6871 58.8033 28.4881C58.9602 28.289 59.0589 28.0419 59.0862 27.7794C59.1136 27.517 59.0684 27.2514 58.9566 27.018C58.8448 26.7846 58.6716 26.5943 58.4601 26.4723C58.2486 26.3503 58.0086 26.3023 57.7719 26.3347C57.5352 26.3671 57.3129 26.4783 57.1346 26.6537V26.6537Z" fill="#FFB6B6"/>
<path d="M54.0803 14.822C50.8169 16.7541 49.3868 21.0611 47.3847 24.8463C47.3433 25.2598 47.3803 25.6784 47.4933 26.0752C47.6062 26.472 47.7927 26.8384 48.0407 27.1508C48.2888 27.4632 48.5929 27.7149 48.9337 27.8897C49.2745 28.0644 49.6445 28.1585 50.02 28.1659L53.9368 28.2658L53.4458 25.5882L52.1358 24.7635L53.6843 20.6132L54.0803 14.822Z" fill="#E6E6E6"/>
<path d="M58.9176 19.0051L62.0414 23.2049L60.7514 25.4696C60.7514 25.4696 57.6105 20.0293 57.5397 19.841C57.3074 19.781 57.0971 19.6443 56.9365 19.4489C56.7759 19.2536 56.6726 19.0088 56.6403 18.747C56.608 18.4853 56.6482 18.2188 56.7555 17.9828C56.8629 17.7469 57.0324 17.5526 57.2416 17.4257C57.4508 17.2988 57.6898 17.2453 57.927 17.2722C58.1643 17.299 58.3886 17.4051 58.5703 17.5763C58.7519 17.7475 58.8824 17.9758 58.9444 18.2309C59.0065 18.486 58.9971 18.756 58.9176 19.0051V19.0051Z" fill="#FFB6B6"/>
<path d="M63.6258 14.9295C64.5687 14.3523 67.3188 23.2549 64.4249 28.3183C64.0947 28.5164 63.7308 28.636 63.3564 28.6694C62.9821 28.7029 62.6056 28.6494 62.2509 28.5124C61.8963 28.3755 61.5714 28.158 61.2969 27.874C61.0225 27.59 60.8046 27.2456 60.6571 26.863L59.1591 22.8009L61.5593 21.9531L62.7055 23.4105L62.546 20.5111L63.9103 16.3903L63.6258 14.9295Z" fill="#E6E6E6"/>
<path d="M32.3808 10.4986C34.8596 10.4986 36.8691 8.27216 36.8691 5.52574C36.8691 2.77933 34.8596 0.552917 32.3808 0.552917C29.9019 0.552917 27.8924 2.77933 27.8924 5.52574C27.8924 8.27216 29.9019 10.4986 32.3808 10.4986Z" fill="#1E3F7F"/>
<path d="M34.3871 4.64569H30.3745C30.206 4.64569 30.0445 4.71981 29.9254 4.85176C29.8063 4.9837 29.7394 5.16266 29.7394 5.34926V9.79501C29.7394 9.98161 29.8063 10.1606 29.9254 10.2925C30.0445 10.4245 30.206 10.4986 30.3745 10.4986H34.3871C34.5555 10.4986 34.717 10.4245 34.8361 10.2925C34.9552 10.1606 35.0221 9.98161 35.0221 9.79501V5.34926C35.0221 5.16266 34.9552 4.9837 34.8361 4.85176C34.717 4.71981 34.5555 4.64569 34.3871 4.64569ZM32.3808 9.13291C32.1022 9.13291 31.8298 9.04137 31.5981 8.86987C31.3665 8.69838 31.1859 8.45461 31.0793 8.16942C30.9727 7.88423 30.9448 7.57041 30.9991 7.26765C31.0535 6.96489 31.1876 6.68678 31.3847 6.46851C31.5817 6.25023 31.8327 6.10158 32.1059 6.04135C32.3792 5.98113 32.6625 6.01204 32.9199 6.13017C33.1773 6.2483 33.3973 6.44835 33.5521 6.70502C33.7069 6.96169 33.7895 7.26345 33.7895 7.57214C33.7895 7.98608 33.6411 8.38307 33.3769 8.67577C33.1127 8.96847 32.7544 9.13291 32.3808 9.13291ZM33.9656 6.01137C33.8959 6.01137 33.8278 5.98848 33.7699 5.94561C33.712 5.90273 33.6669 5.84179 33.6402 5.77049C33.6136 5.69919 33.6066 5.62074 33.6202 5.54505C33.6338 5.46936 33.6673 5.39983 33.7166 5.34526C33.7658 5.29069 33.8286 5.25353 33.8969 5.23848C33.9652 5.22342 34.036 5.23115 34.1004 5.26068C34.1647 5.29022 34.2197 5.34023 34.2584 5.40439C34.2971 5.46856 34.3178 5.544 34.3178 5.62117C34.3178 5.72466 34.2807 5.82391 34.2146 5.89708C34.1486 5.97026 34.059 6.01137 33.9656 6.01137Z" fill="white"/>
<path d="M33.7842 38.9806C36.2631 38.9806 38.2726 36.7542 38.2726 34.0077C38.2726 31.2613 36.2631 29.0349 33.7842 29.0349C31.3053 29.0349 29.2958 31.2613 29.2958 34.0077C29.2958 36.7542 31.3053 38.9806 33.7842 38.9806Z" fill="#1E3F7F"/>
<path d="M23.4884 24.9457C25.9673 24.9457 27.9768 22.7192 27.9768 19.9728C27.9768 17.2264 25.9673 15 23.4884 15C21.0095 15 19 17.2264 19 19.9728C19 22.7192 21.0095 24.9457 23.4884 24.9457Z" fill="#1E3F7F"/>
<path d="M35.9086 32.8307L31.1672 32.8311C31.1063 32.8278 31.0453 32.838 30.9879 32.8611C30.9305 32.8841 30.8777 32.9196 30.8326 32.9655C30.7875 33.0113 30.751 33.0667 30.7251 33.1284C30.6992 33.19 30.6845 33.2568 30.6818 33.3248L30.6823 38.6267C30.6855 38.7693 30.7377 38.9051 30.828 39.0062C30.9183 39.1072 31.0399 39.1658 31.1677 39.1698L35.9078 39.1693C36.0325 39.1639 36.1503 39.1038 36.2356 39.0021C36.3209 38.9004 36.3668 38.7653 36.3635 38.6261L36.363 33.3243C36.364 33.258 36.3529 33.1922 36.3302 33.1309C36.3076 33.0697 36.274 33.0142 36.2314 32.968C36.1888 32.9217 36.1382 32.8857 36.0827 32.8621C36.0272 32.8385 35.968 32.8278 35.9086 32.8307ZM32.4433 38.1146L31.6294 38.1147L31.6292 35.2913L32.443 35.2912L32.4433 38.1146ZM32.0642 34.862H32.0584C31.9413 34.8611 31.8292 34.8085 31.7468 34.7156C31.6644 34.6228 31.6184 34.4973 31.6187 34.3666C31.6191 34.2359 31.6659 34.1108 31.7489 34.0185C31.8318 33.9263 31.9442 33.8745 32.0613 33.8745C32.1784 33.8745 32.2908 33.9263 32.3737 34.0185C32.4567 34.1108 32.5034 34.2359 32.5038 34.3666C32.5042 34.4973 32.4582 34.6228 32.3758 34.7156C32.2934 34.8085 32.1813 34.8611 32.0642 34.862ZM35.4178 38.1143L34.6039 38.1144L34.6038 36.5706C34.6037 36.2008 34.4853 35.9481 34.1908 35.9481C34.0987 35.9489 34.0091 35.9816 33.9344 36.0417C33.8596 36.1017 33.8034 36.1861 33.7735 36.2833C33.7518 36.3551 33.7423 36.4307 33.7454 36.5063L33.7455 38.1145L32.9316 38.1146L32.9314 35.2912L33.7453 35.2911L33.7453 35.684C33.8194 35.541 33.9267 35.4229 34.0558 35.3421C34.185 35.2613 34.3313 35.2208 34.4793 35.2249C35.0135 35.2249 35.4177 35.6178 35.4178 36.4648V38.1143Z" fill="white"/>
<path d="M25.6477 19H21.635C21.4666 19 21.3051 19.076 21.186 19.2112C21.0669 19.3465 21 19.53 21 19.7213V24.2787C21 24.47 21.0669 24.6535 21.186 24.7887C21.3051 24.924 21.4666 25 21.635 25H25.6477C25.8161 25 25.9776 24.924 26.0967 24.7887C26.2158 24.6535 26.2827 24.47 26.2827 24.2787V19.7213C26.2827 19.53 26.2158 19.3465 26.0967 19.2112C25.9776 19.076 25.8161 19 25.6477 19ZM24.8942 20.5387H24.4341C24.1199 20.5387 24.0587 20.7076 24.0587 20.9571V21.486H24.808L24.7107 22.3166H24.0573V24.4822C23.778 24.5418 23.4912 24.541 23.2121 24.4799V22.3166H22.6129V21.486H23.2232V20.8718C23.2232 20.1376 23.6723 19.7366 24.2506 19.7366C24.5286 19.7366 24.8261 19.7603 24.8942 19.7713L24.8942 20.5387Z" fill="white"/>
</g>
<defs>
<clipPath id="clip0_14_85">
<rect width="75" height="60" fill="white"/>
</clipPath>
</defs>
</svg>
